<svg width="117" height="84" viewBox="0 0 117 84" fill="none" xmlns="http://www.w3.org/2000/svg">
<path d="M110.014 0.257188C113.588 7.09683 115.681 14.5508 116.17 22.1832C116.66 29.8155 115.536 37.473 112.866 44.7077C110.195 51.9424 106.031 58.6091 100.616 64.3178C95.2016 70.0264 88.6457 74.6625 81.332 77.9549C74.0182 81.2472 66.0934 83.1296 58.021 83.4921C49.9486 83.8546 41.8908 82.6898 34.3188 80.0659C26.7468 77.442 19.8127 73.4116 13.922 68.2106C8.23856 63.1924 3.53476 56.9842 0.26264 50.3102C0.143364 50.0669 0.382221 49.3178 0.266491 49.0728L0.566936 49.5376C3.82459 56.435 8.5062 62.6396 14.3379 67.7887C20.1697 72.9377 27.0344 76.9278 34.5307 79.5254C42.027 82.1231 50.0042 83.2762 57.9959 82.9174C65.9875 82.5585 73.8331 80.6949 81.0738 77.4355C88.3144 74.1761 94.8047 69.5864 100.165 63.9348C105.525 58.2832 109.648 51.6832 112.292 44.5208C114.936 37.3585 116.048 29.7776 115.564 22.2216C115.079 14.6655 113.007 7.28607 109.469 0.514824L110.014 0.257188Z" fill="white"/>
</svg>
