<svg width="225" height="87" viewBox="0 0 225 87" fill="none" xmlns="http://www.w3.org/2000/svg">
<path d="M3.75 51H5.3V26.15C5.55 25.9 5.7 25.75 5.9 25.5H31.55L32.2 26.15V51H33.75V16H3.75V51ZM42.75 51H44.3V38.05H61.25C76.95 38.05 76.95 16 61.25 16H42.75V51ZM44.3 26.15L44.95 25.5H62.9C70.8 25.5 70.8 36.5 62.9 36.5H44.3V26.15ZM77.6973 16V51H87.1973L104.797 21.25V51H106.347V16H96.8473L79.2473 45.75V16H77.6973ZM115.33 16V51H135.33C147.73 51 149.43 35.95 140.38 31.85C146.33 27.2 144.23 16 134.13 16H115.33ZM116.88 40.85V32.7H137.68C144.08 32.7 144.08 41.5 137.68 41.5H117.53L116.88 40.85ZM116.88 26.1L117.53 25.5H137.58C141.83 25.5 141.83 31.15 137.58 31.15H116.88V26.1ZM177.238 51V41.5H156.188L155.538 40.85V32.7H169.838V31.15H155.538V26.1C155.788 25.9 155.938 25.75 156.188 25.5H175.688V16H153.988V51H177.238ZM193.37 25.5C193.62 25.75 193.72 25.9 193.97 26.1V51H195.52V26.1C195.77 25.9 195.87 25.75 196.12 25.5H208.62V16H180.82V25.5H193.37Z" fill="white"/>
<path d="M215.014 0.257188C218.588 7.09683 220.681 14.5508 221.17 22.1832C221.66 29.8155 220.536 37.473 217.866 44.7077C215.195 51.9424 211.031 58.6091 205.616 64.3178C200.202 70.0264 193.646 74.6625 186.332 77.9549C179.018 81.2472 171.093 83.1296 163.021 83.4921C154.949 83.8546 146.891 82.6898 139.319 80.0659C131.747 77.442 124.813 73.4116 118.922 68.2106C113.239 63.1924 108.535 56.9842 105.263 50.3102C105.143 50.0669 105.382 49.3178 105.266 49.0728L105.567 49.5376C108.825 56.435 113.506 62.6396 119.338 67.7887C125.17 72.9377 132.034 76.9278 139.531 79.5254C147.027 82.1231 155.004 83.2762 162.996 82.9174C170.988 82.5585 178.833 80.6949 186.074 77.4355C193.314 74.1761 199.805 69.5864 205.165 63.9348C210.525 58.2832 214.648 51.6832 217.292 44.5208C219.936 37.3585 221.048 29.7776 220.564 22.2216C220.079 14.6655 218.007 7.28607 214.469 0.514824L215.014 0.257188Z" fill="white"/>
</svg>
