<svg width="444" height="172" viewBox="0 0 444 172" fill="none" xmlns="http://www.w3.org/2000/svg">
<path d="M46.3793 35.3636V47H44.9702V36.6136H39.1065V47H37.6974V35.3636H46.3793ZM52.5852 47.1818C51.7973 47.1818 51.1061 46.9943 50.5114 46.6193C49.9205 46.2443 49.4583 45.7197 49.125 45.0455C48.7955 44.3712 48.6307 43.5833 48.6307 42.6818C48.6307 41.7727 48.7955 40.9792 49.125 40.3011C49.4583 39.6231 49.9205 39.0966 50.5114 38.7216C51.1061 38.3466 51.7973 38.1591 52.5852 38.1591C53.3731 38.1591 54.0625 38.3466 54.6534 38.7216C55.2481 39.0966 55.7102 39.6231 56.0398 40.3011C56.3731 40.9792 56.5398 41.7727 56.5398 42.6818C56.5398 43.5833 56.3731 44.3712 56.0398 45.0455C55.7102 45.7197 55.2481 46.2443 54.6534 46.6193C54.0625 46.9943 53.3731 47.1818 52.5852 47.1818ZM52.5852 45.9773C53.1837 45.9773 53.6761 45.8239 54.0625 45.517C54.4489 45.2102 54.7348 44.8068 54.9205 44.3068C55.1061 43.8068 55.1989 43.2652 55.1989 42.6818C55.1989 42.0985 55.1061 41.5549 54.9205 41.0511C54.7348 40.5473 54.4489 40.1402 54.0625 39.8295C53.6761 39.5189 53.1837 39.3636 52.5852 39.3636C51.9867 39.3636 51.4943 39.5189 51.108 39.8295C50.7216 40.1402 50.4356 40.5473 50.25 41.0511C50.0644 41.5549 49.9716 42.0985 49.9716 42.6818C49.9716 43.2652 50.0644 43.8068 50.25 44.3068C50.4356 44.8068 50.7216 45.2102 51.108 45.517C51.4943 45.8239 51.9867 45.9773 52.5852 45.9773ZM57.6548 49.5V45.75H58.3821C58.5601 45.5644 58.7135 45.3636 58.8423 45.1477C58.9711 44.9318 59.0829 44.6761 59.1776 44.3807C59.276 44.0814 59.3594 43.7178 59.4276 43.2898C59.4957 42.858 59.5563 42.3371 59.6094 41.7273L59.9048 38.2727H65.4503V45.75H66.7912V49.5H65.4503V47H58.9957V49.5H57.6548ZM59.9048 45.75H64.1094V39.5227H61.1548L60.9276 41.7273C60.8329 42.6402 60.7154 43.4375 60.5753 44.1193C60.4351 44.8011 60.2116 45.3447 59.9048 45.75ZM68.571 47V38.2727H69.9119V42.0682H70.7983L73.9347 38.2727H75.6619L72.1392 42.4773L75.7074 47H73.9801L71.1165 43.3182H69.9119V47H68.571ZM76.392 47V45.75H76.7102C76.9716 45.75 77.1894 45.6989 77.3636 45.5966C77.5379 45.4905 77.678 45.3068 77.7841 45.0455C77.8939 44.7803 77.9773 44.4129 78.0341 43.9432C78.0947 43.4697 78.1383 42.8674 78.1648 42.1364L78.3239 38.2727H84.142V47H82.8011V39.5227H79.5966L79.4602 42.6364C79.4299 43.3523 79.3655 43.983 79.267 44.5284C79.1723 45.0701 79.0265 45.5246 78.8295 45.892C78.6364 46.2595 78.3788 46.536 78.0568 46.7216C77.7348 46.9072 77.3314 47 76.8466 47H76.392ZM90.7841 42.0909V43.3409H86.1705V42.0909H90.7841ZM87.3068 38.2727V47H85.9659V38.2727H87.3068ZM93.4659 47.1818C92.678 47.1818 91.9867 46.9943 91.392 46.6193C90.8011 46.2443 90.339 45.7197 90.0057 45.0455C89.6761 44.3712 89.5114 43.5833 89.5114 42.6818C89.5114 41.7727 89.6761 40.9792 90.0057 40.3011C90.339 39.6231 90.8011 39.0966 91.392 38.7216C91.9867 38.3466 92.678 38.1591 93.4659 38.1591C94.2538 38.1591 94.9432 38.3466 95.5341 38.7216C96.1288 39.0966 96.5909 39.6231 96.9205 40.3011C97.2538 40.9792 97.4205 41.7727 97.4205 42.6818C97.4205 43.5833 97.2538 44.3712 96.9205 45.0455C96.5909 45.7197 96.1288 46.2443 95.5341 46.6193C94.9432 46.9943 94.2538 47.1818 93.4659 47.1818ZM93.4659 45.9773C94.0644 45.9773 94.5568 45.8239 94.9432 45.517C95.3295 45.2102 95.6155 44.8068 95.8011 44.3068C95.9867 43.8068 96.0795 43.2652 96.0795 42.6818C96.0795 42.0985 95.9867 41.5549 95.8011 41.0511C95.6155 40.5473 95.3295 40.1402 94.9432 39.8295C94.5568 39.5189 94.0644 39.3636 93.4659 39.3636C92.8674 39.3636 92.375 39.5189 91.9886 39.8295C91.6023 40.1402 91.3163 40.5473 91.1307 41.0511C90.9451 41.5549 90.8523 42.0985 90.8523 42.6818C90.8523 43.2652 90.9451 43.8068 91.1307 44.3068C91.3163 44.8068 91.6023 45.2102 91.9886 45.517C92.375 45.8239 92.8674 45.9773 93.4659 45.9773ZM106.33 38.2727V47H104.989V38.2727H106.33ZM105.807 42.4318V43.6818C105.504 43.7955 105.203 43.8958 104.903 43.983C104.604 44.0663 104.29 44.1326 103.96 44.1818C103.631 44.2273 103.269 44.25 102.875 44.25C101.886 44.25 101.093 43.983 100.494 43.4489C99.8996 42.9148 99.6023 42.1136 99.6023 41.0455V38.25H100.943V41.0455C100.943 41.4924 101.028 41.8598 101.199 42.1477C101.369 42.4356 101.6 42.6496 101.892 42.7898C102.184 42.9299 102.511 43 102.875 43C103.443 43 103.956 42.9489 104.415 42.8466C104.877 42.7405 105.341 42.6023 105.807 42.4318ZM110.131 45.0227L114.335 38.2727H115.881V47H114.54V40.25L110.358 47H108.79V38.2727H110.131V45.0227ZM117.149 39.5227V38.2727H124.24V39.5227H121.376V47H120.036V39.5227H117.149ZM127.355 41.4318H129.855C130.878 41.4318 131.66 41.6913 132.202 42.2102C132.743 42.7292 133.014 43.3864 133.014 44.1818C133.014 44.7045 132.893 45.1799 132.651 45.608C132.408 46.0322 132.052 46.3712 131.582 46.625C131.113 46.875 130.537 47 129.855 47H126.196V38.2727H127.537V45.75H129.855C130.385 45.75 130.821 45.6098 131.162 45.3295C131.503 45.0492 131.673 44.6894 131.673 44.25C131.673 43.7879 131.503 43.411 131.162 43.1193C130.821 42.8277 130.385 42.6818 129.855 42.6818H127.355V41.4318ZM138.601 47.1818C137.783 47.1818 137.078 46.9886 136.487 46.6023C135.896 46.2159 135.442 45.6837 135.124 45.0057C134.805 44.3277 134.646 43.553 134.646 42.6818C134.646 41.7955 134.809 41.0133 135.135 40.3352C135.464 39.6534 135.923 39.1212 136.51 38.7386C137.101 38.3523 137.79 38.1591 138.578 38.1591C139.192 38.1591 139.745 38.2727 140.237 38.5C140.73 38.7273 141.133 39.0455 141.447 39.4545C141.762 39.8636 141.957 40.3409 142.033 40.8864H140.692C140.589 40.4886 140.362 40.1364 140.01 39.8295C139.661 39.5189 139.192 39.3636 138.601 39.3636C138.078 39.3636 137.62 39.5 137.226 39.7727C136.836 40.0417 136.531 40.4223 136.311 40.9148C136.095 41.4034 135.987 41.9773 135.987 42.6364C135.987 43.3106 136.093 43.8977 136.305 44.3977C136.521 44.8977 136.824 45.286 137.214 45.5625C137.608 45.839 138.071 45.9773 138.601 45.9773C138.949 45.9773 139.266 45.9167 139.55 45.7955C139.834 45.6742 140.074 45.5 140.271 45.2727C140.468 45.0455 140.608 44.7727 140.692 44.4545H142.033C141.957 44.9697 141.769 45.4337 141.47 45.8466C141.175 46.2557 140.783 46.5814 140.294 46.8239C139.809 47.0625 139.245 47.1818 138.601 47.1818ZM149.243 47V39.5H146.925C146.402 39.5 145.991 39.6212 145.692 39.8636C145.393 40.1061 145.243 40.4394 145.243 40.8636C145.243 41.2803 145.377 41.608 145.646 41.8466C145.919 42.0852 146.292 42.2045 146.766 42.2045H149.584V43.4545H146.766C146.175 43.4545 145.665 43.3504 145.237 43.142C144.809 42.9337 144.48 42.6364 144.249 42.25C144.018 41.8598 143.902 41.3977 143.902 40.8636C143.902 40.3258 144.023 39.8636 144.266 39.4773C144.508 39.0909 144.855 38.7936 145.305 38.5852C145.76 38.3769 146.3 38.2727 146.925 38.2727H150.516V47H149.243ZM143.425 47L145.902 42.6591H147.357L144.879 47H143.425ZM164.205 38.2727V47H162.864V38.2727H164.205ZM163.682 42.4318V43.6818C163.379 43.7955 163.078 43.8958 162.778 43.983C162.479 44.0663 162.165 44.1326 161.835 44.1818C161.506 44.2273 161.144 44.25 160.75 44.25C159.761 44.25 158.968 43.983 158.369 43.4489C157.775 42.9148 157.477 42.1136 157.477 41.0455V38.25H158.818V41.0455C158.818 41.4924 158.903 41.8598 159.074 42.1477C159.244 42.4356 159.475 42.6496 159.767 42.7898C160.059 42.9299 160.386 43 160.75 43C161.318 43 161.831 42.9489 162.29 42.8466C162.752 42.7405 163.216 42.6023 163.682 42.4318ZM170.324 47.1818C169.483 47.1818 168.758 46.9962 168.148 46.625C167.542 46.25 167.074 45.7273 166.744 45.0568C166.419 44.3826 166.256 43.5985 166.256 42.7045C166.256 41.8106 166.419 41.0227 166.744 40.3409C167.074 39.6553 167.532 39.1212 168.119 38.7386C168.71 38.3523 169.4 38.1591 170.188 38.1591C170.642 38.1591 171.091 38.2348 171.534 38.3864C171.977 38.5379 172.381 38.7841 172.744 39.125C173.108 39.4621 173.398 39.9091 173.614 40.4659C173.83 41.0227 173.938 41.7083 173.938 42.5227V43.0909H167.21V41.9318H172.574C172.574 41.4394 172.475 41 172.278 40.6136C172.085 40.2273 171.809 39.9223 171.449 39.6989C171.093 39.4754 170.672 39.3636 170.188 39.3636C169.653 39.3636 169.191 39.4962 168.801 39.7614C168.415 40.0227 168.117 40.3636 167.909 40.7841C167.701 41.2045 167.597 41.6553 167.597 42.1364V42.9091C167.597 43.5682 167.71 44.1269 167.938 44.5852C168.169 45.0398 168.489 45.3864 168.898 45.625C169.307 45.8598 169.782 45.9773 170.324 45.9773C170.676 45.9773 170.994 45.928 171.278 45.8295C171.566 45.7273 171.814 45.5758 172.023 45.375C172.231 45.1705 172.392 44.9167 172.506 44.6136L173.801 44.9773C173.665 45.4167 173.436 45.803 173.114 46.1364C172.792 46.4659 172.394 46.7235 171.92 46.9091C171.447 47.0909 170.915 47.1818 170.324 47.1818ZM175.977 50.2727V38.2727H177.273V39.6591H177.432C177.53 39.5076 177.667 39.3144 177.841 39.0795C178.019 38.8409 178.273 38.6288 178.602 38.4432C178.936 38.2538 179.386 38.1591 179.955 38.1591C180.689 38.1591 181.337 38.3428 181.898 38.7102C182.458 39.0777 182.896 39.5985 183.21 40.2727C183.525 40.947 183.682 41.7424 183.682 42.6591C183.682 43.5833 183.525 44.3845 183.21 45.0625C182.896 45.7367 182.46 46.2595 181.903 46.6307C181.347 46.9981 180.705 47.1818 179.977 47.1818C179.417 47.1818 178.968 47.089 178.631 46.9034C178.294 46.714 178.034 46.5 177.852 46.2614C177.67 46.0189 177.53 45.8182 177.432 45.6591H177.318V50.2727H175.977ZM177.295 42.6364C177.295 43.2955 177.392 43.8769 177.585 44.3807C177.778 44.8807 178.061 45.2727 178.432 45.5568C178.803 45.8371 179.258 45.9773 179.795 45.9773C180.356 45.9773 180.824 45.8295 181.199 45.5341C181.578 45.2348 181.862 44.8333 182.051 44.3295C182.244 43.822 182.341 43.2576 182.341 42.6364C182.341 42.0227 182.246 41.4697 182.057 40.9773C181.871 40.4811 181.589 40.089 181.21 39.8011C180.835 39.5095 180.364 39.3636 179.795 39.3636C179.25 39.3636 178.792 39.5019 178.42 39.7784C178.049 40.0511 177.769 40.4337 177.58 40.9261C177.39 41.4148 177.295 41.9848 177.295 42.6364ZM189.386 47.1818C188.545 47.1818 187.82 46.9962 187.21 46.625C186.604 46.25 186.136 45.7273 185.807 45.0568C185.481 44.3826 185.318 43.5985 185.318 42.7045C185.318 41.8106 185.481 41.0227 185.807 40.3409C186.136 39.6553 186.595 39.1212 187.182 38.7386C187.773 38.3523 188.462 38.1591 189.25 38.1591C189.705 38.1591 190.153 38.2348 190.597 38.3864C191.04 38.5379 191.443 38.7841 191.807 39.125C192.17 39.4621 192.46 39.9091 192.676 40.4659C192.892 41.0227 193 41.7083 193 42.5227V43.0909H186.273V41.9318H191.636C191.636 41.4394 191.538 41 191.341 40.6136C191.148 40.2273 190.871 39.9223 190.511 39.6989C190.155 39.4754 189.735 39.3636 189.25 39.3636C188.716 39.3636 188.254 39.4962 187.864 39.7614C187.477 40.0227 187.18 40.3636 186.972 40.7841C186.763 41.2045 186.659 41.6553 186.659 42.1364V42.9091C186.659 43.5682 186.773 44.1269 187 44.5852C187.231 45.0398 187.551 45.3864 187.96 45.625C188.369 45.8598 188.845 45.9773 189.386 45.9773C189.739 45.9773 190.057 45.928 190.341 45.8295C190.629 45.7273 190.877 45.5758 191.085 45.375C191.294 45.1705 191.455 44.9167 191.568 44.6136L192.864 44.9773C192.727 45.4167 192.498 45.803 192.176 46.1364C191.854 46.4659 191.456 46.7235 190.983 46.9091C190.509 47.0909 189.977 47.1818 189.386 47.1818ZM194.494 44.7727H195.926C195.956 45.1667 196.134 45.4659 196.46 45.6705C196.79 45.875 197.218 45.9773 197.744 45.9773C198.282 45.9773 198.742 45.8674 199.125 45.6477C199.508 45.4242 199.699 45.0644 199.699 44.5682C199.699 44.2765 199.627 44.0227 199.483 43.8068C199.339 43.5871 199.136 43.4167 198.875 43.2955C198.614 43.1742 198.305 43.1136 197.949 43.1136H196.449V41.9091H197.949C198.483 41.9091 198.877 41.7879 199.131 41.5455C199.388 41.303 199.517 41 199.517 40.6364C199.517 40.2462 199.379 39.9337 199.102 39.6989C198.826 39.4602 198.434 39.3409 197.926 39.3409C197.415 39.3409 196.989 39.4564 196.648 39.6875C196.307 39.9148 196.127 40.2083 196.108 40.5682H194.699C194.714 40.0985 194.858 39.6837 195.131 39.3239C195.403 38.9602 195.775 38.6761 196.244 38.4716C196.714 38.2633 197.252 38.1591 197.858 38.1591C198.472 38.1591 199.004 38.267 199.455 38.483C199.909 38.6951 200.259 38.9848 200.506 39.3523C200.756 39.7159 200.881 40.1288 200.881 40.5909C200.881 41.0833 200.742 41.4811 200.466 41.7841C200.189 42.0871 199.843 42.303 199.426 42.4318V42.5227C199.756 42.5455 200.042 42.6515 200.284 42.8409C200.53 43.0265 200.722 43.2708 200.858 43.5739C200.994 43.8731 201.062 44.2045 201.062 44.5682C201.062 45.0985 200.92 45.5606 200.636 45.9545C200.352 46.3447 199.962 46.6477 199.466 46.8636C198.97 47.0758 198.403 47.1818 197.767 47.1818C197.15 47.1818 196.597 47.0814 196.108 46.8807C195.619 46.6761 195.231 46.3939 194.943 46.0341C194.659 45.6705 194.509 45.25 194.494 44.7727ZM206.946 39.5227V38.2727H214.037V39.5227H211.173V47H209.832V39.5227H206.946ZM219.199 47.1818C218.358 47.1818 217.633 46.9962 217.023 46.625C216.417 46.25 215.949 45.7273 215.619 45.0568C215.294 44.3826 215.131 43.5985 215.131 42.7045C215.131 41.8106 215.294 41.0227 215.619 40.3409C215.949 39.6553 216.407 39.1212 216.994 38.7386C217.585 38.3523 218.275 38.1591 219.062 38.1591C219.517 38.1591 219.966 38.2348 220.409 38.3864C220.852 38.5379 221.256 38.7841 221.619 39.125C221.983 39.4621 222.273 39.9091 222.489 40.4659C222.705 41.0227 222.812 41.7083 222.812 42.5227V43.0909H216.085V41.9318H221.449C221.449 41.4394 221.35 41 221.153 40.6136C220.96 40.2273 220.684 39.9223 220.324 39.6989C219.968 39.4754 219.547 39.3636 219.062 39.3636C218.528 39.3636 218.066 39.4962 217.676 39.7614C217.29 40.0227 216.992 40.3636 216.784 40.7841C216.576 41.2045 216.472 41.6553 216.472 42.1364V42.9091C216.472 43.5682 216.585 44.1269 216.812 44.5852C217.044 45.0398 217.364 45.3864 217.773 45.625C218.182 45.8598 218.657 45.9773 219.199 45.9773C219.551 45.9773 219.869 45.928 220.153 45.8295C220.441 45.7273 220.689 45.5758 220.898 45.375C221.106 45.1705 221.267 44.9167 221.381 44.6136L222.676 44.9773C222.54 45.4167 222.311 45.803 221.989 46.1364C221.667 46.4659 221.269 46.7235 220.795 46.9091C220.322 47.0909 219.79 47.1818 219.199 47.1818ZM224.08 47V45.75H224.398C224.659 45.75 224.877 45.6989 225.051 45.5966C225.225 45.4905 225.366 45.3068 225.472 45.0455C225.581 44.7803 225.665 44.4129 225.722 43.9432C225.782 43.4697 225.826 42.8674 225.852 42.1364L226.011 38.2727H231.83V47H230.489V39.5227H227.284L227.148 42.6364C227.117 43.3523 227.053 43.983 226.955 44.5284C226.86 45.0701 226.714 45.5246 226.517 45.892C226.324 46.2595 226.066 46.536 225.744 46.7216C225.422 46.9072 225.019 47 224.534 47H224.08ZM237.949 47.1818C237.108 47.1818 236.383 46.9962 235.773 46.625C235.167 46.25 234.699 45.7273 234.369 45.0568C234.044 44.3826 233.881 43.5985 233.881 42.7045C233.881 41.8106 234.044 41.0227 234.369 40.3409C234.699 39.6553 235.157 39.1212 235.744 38.7386C236.335 38.3523 237.025 38.1591 237.812 38.1591C238.267 38.1591 238.716 38.2348 239.159 38.3864C239.602 38.5379 240.006 38.7841 240.369 39.125C240.733 39.4621 241.023 39.9091 241.239 40.4659C241.455 41.0227 241.562 41.7083 241.562 42.5227V43.0909H234.835V41.9318H240.199C240.199 41.4394 240.1 41 239.903 40.6136C239.71 40.2273 239.434 39.9223 239.074 39.6989C238.718 39.4754 238.297 39.3636 237.812 39.3636C237.278 39.3636 236.816 39.4962 236.426 39.7614C236.04 40.0227 235.742 40.3636 235.534 40.7841C235.326 41.2045 235.222 41.6553 235.222 42.1364V42.9091C235.222 43.5682 235.335 44.1269 235.562 44.5852C235.794 45.0398 236.114 45.3864 236.523 45.625C236.932 45.8598 237.407 45.9773 237.949 45.9773C238.301 45.9773 238.619 45.928 238.903 45.8295C239.191 45.7273 239.439 45.5758 239.648 45.375C239.856 45.1705 240.017 44.9167 240.131 44.6136L241.426 44.9773C241.29 45.4167 241.061 45.803 240.739 46.1364C240.417 46.4659 240.019 46.7235 239.545 46.9091C239.072 47.0909 238.54 47.1818 237.949 47.1818ZM248.989 38.2727V39.5227H244.943V47H243.602V38.2727H248.989ZM250.946 50.2727V38.2727H252.241V39.6591H252.401C252.499 39.5076 252.635 39.3144 252.81 39.0795C252.988 38.8409 253.241 38.6288 253.571 38.4432C253.904 38.2538 254.355 38.1591 254.923 38.1591C255.658 38.1591 256.306 38.3428 256.866 38.7102C257.427 39.0777 257.865 39.5985 258.179 40.2727C258.493 40.947 258.651 41.7424 258.651 42.6591C258.651 43.5833 258.493 44.3845 258.179 45.0625C257.865 45.7367 257.429 46.2595 256.872 46.6307C256.315 46.9981 255.673 47.1818 254.946 47.1818C254.385 47.1818 253.937 47.089 253.599 46.9034C253.262 46.714 253.003 46.5 252.821 46.2614C252.639 46.0189 252.499 45.8182 252.401 45.6591H252.287V50.2727H250.946ZM252.264 42.6364C252.264 43.2955 252.361 43.8769 252.554 44.3807C252.747 44.8807 253.029 45.2727 253.401 45.5568C253.772 45.8371 254.226 45.9773 254.764 45.9773C255.325 45.9773 255.793 45.8295 256.168 45.5341C256.546 45.2348 256.83 44.8333 257.02 44.3295C257.213 43.822 257.31 43.2576 257.31 42.6364C257.31 42.0227 257.215 41.4697 257.026 40.9773C256.84 40.4811 256.558 40.089 256.179 39.8011C255.804 39.5095 255.332 39.3636 254.764 39.3636C254.219 39.3636 253.76 39.5019 253.389 39.7784C253.018 40.0511 252.738 40.4337 252.548 40.9261C252.359 41.4148 252.264 41.9848 252.264 42.6364ZM263.264 47.2045C262.711 47.2045 262.209 47.1004 261.759 46.892C261.308 46.6799 260.95 46.375 260.685 45.9773C260.42 45.5758 260.287 45.0909 260.287 44.5227C260.287 44.0227 260.385 43.6174 260.582 43.3068C260.779 42.9924 261.043 42.7462 261.372 42.5682C261.702 42.3902 262.065 42.2576 262.463 42.1705C262.865 42.0795 263.268 42.0076 263.673 41.9545C264.204 41.8864 264.634 41.8352 264.963 41.8011C265.296 41.7633 265.539 41.7008 265.69 41.6136C265.846 41.5265 265.923 41.375 265.923 41.1591V41.1136C265.923 40.553 265.77 40.1174 265.463 39.8068C265.16 39.4962 264.7 39.3409 264.082 39.3409C263.442 39.3409 262.94 39.4811 262.577 39.7614C262.213 40.0417 261.957 40.3409 261.81 40.6591L260.537 40.2045C260.764 39.6742 261.067 39.2614 261.446 38.9659C261.829 38.6667 262.245 38.4583 262.696 38.3409C263.151 38.2197 263.598 38.1591 264.037 38.1591C264.317 38.1591 264.639 38.1932 265.003 38.2614C265.37 38.3258 265.724 38.4602 266.065 38.6648C266.41 38.8693 266.696 39.178 266.923 39.5909C267.151 40.0038 267.264 40.5568 267.264 41.25V47H265.923V45.8182H265.855C265.764 46.0076 265.613 46.2102 265.401 46.4261C265.188 46.642 264.906 46.8258 264.554 46.9773C264.202 47.1288 263.772 47.2045 263.264 47.2045ZM263.469 46C263.999 46 264.446 45.8958 264.81 45.6875C265.177 45.4792 265.454 45.2102 265.639 44.8807C265.829 44.5511 265.923 44.2045 265.923 43.8409V42.6136C265.866 42.6818 265.741 42.7443 265.548 42.8011C265.359 42.8542 265.139 42.9015 264.889 42.9432C264.643 42.9811 264.402 43.0152 264.168 43.0455C263.937 43.072 263.749 43.0947 263.605 43.1136C263.257 43.1591 262.931 43.233 262.628 43.3352C262.329 43.4337 262.086 43.5833 261.901 43.7841C261.719 43.9811 261.628 44.25 261.628 44.5909C261.628 45.0568 261.8 45.4091 262.145 45.6477C262.493 45.8826 262.935 46 263.469 46ZM274.484 45.1818L277.53 38.2727H278.803L275.03 47H273.939L270.234 38.2727H271.484L274.484 45.1818ZM271.053 38.2727V47H269.712V38.2727H271.053ZM277.916 47V38.2727H279.257V47H277.916ZM286.712 41.3864V42.6364H281.621V41.3864H286.712ZM295.548 35L296.23 35.8182C295.965 36.0758 295.658 36.2557 295.31 36.358C294.961 36.4602 294.567 36.5227 294.128 36.5455C293.688 36.5682 293.2 36.5909 292.662 36.6136C292.056 36.6364 291.554 36.7841 291.156 37.0568C290.759 37.3295 290.452 37.7235 290.236 38.2386C290.02 38.7538 289.882 39.3864 289.821 40.1364H289.935C290.23 39.5909 290.639 39.1894 291.162 38.9318C291.685 38.6742 292.245 38.5455 292.844 38.5455C293.526 38.5455 294.139 38.7045 294.685 39.0227C295.23 39.3409 295.662 39.8125 295.98 40.4375C296.298 41.0625 296.457 41.8333 296.457 42.75C296.457 43.6629 296.295 44.4508 295.969 45.1136C295.647 45.7765 295.194 46.2879 294.611 46.6477C294.031 47.0038 293.351 47.1818 292.571 47.1818C291.791 47.1818 291.107 46.9981 290.52 46.6307C289.933 46.2595 289.476 45.7102 289.151 44.983C288.825 44.2519 288.662 43.3485 288.662 42.2727V41.3409C288.662 39.3977 288.991 37.9242 289.651 36.9205C290.313 35.9167 291.31 35.3977 292.639 35.3636C293.109 35.3485 293.527 35.3447 293.895 35.3523C294.262 35.3598 294.582 35.3428 294.855 35.3011C295.128 35.2595 295.359 35.1591 295.548 35ZM292.571 45.9773C293.098 45.9773 293.55 45.8447 293.929 45.5795C294.312 45.3144 294.605 44.9413 294.81 44.4602C295.014 43.9754 295.116 43.4053 295.116 42.75C295.116 42.1136 295.012 41.572 294.804 41.125C294.599 40.678 294.306 40.3371 293.923 40.1023C293.541 39.8674 293.082 39.75 292.548 39.75C292.158 39.75 291.808 39.8163 291.497 39.9489C291.187 40.0814 290.921 40.2765 290.702 40.5341C290.482 40.7917 290.312 41.1061 290.19 41.4773C290.073 41.8485 290.01 42.2727 290.003 42.75C290.003 43.7273 290.232 44.5095 290.69 45.0966C291.149 45.6837 291.776 45.9773 292.571 45.9773ZM302.054 47.1818C301.266 47.1818 300.575 46.9943 299.98 46.6193C299.389 46.2443 298.927 45.7197 298.594 45.0455C298.264 44.3712 298.099 43.5833 298.099 42.6818C298.099 41.7727 298.264 40.9792 298.594 40.3011C298.927 39.6231 299.389 39.0966 299.98 38.7216C300.575 38.3466 301.266 38.1591 302.054 38.1591C302.842 38.1591 303.531 38.3466 304.122 38.7216C304.717 39.0966 305.179 39.6231 305.509 40.3011C305.842 40.9792 306.009 41.7727 306.009 42.6818C306.009 43.5833 305.842 44.3712 305.509 45.0455C305.179 45.7197 304.717 46.2443 304.122 46.6193C303.531 46.9943 302.842 47.1818 302.054 47.1818ZM302.054 45.9773C302.652 45.9773 303.145 45.8239 303.531 45.517C303.918 45.2102 304.204 44.8068 304.389 44.3068C304.575 43.8068 304.668 43.2652 304.668 42.6818C304.668 42.0985 304.575 41.5549 304.389 41.0511C304.204 40.5473 303.918 40.1402 303.531 39.8295C303.145 39.5189 302.652 39.3636 302.054 39.3636C301.455 39.3636 300.963 39.5189 300.577 39.8295C300.19 40.1402 299.904 40.5473 299.719 41.0511C299.533 41.5549 299.44 42.0985 299.44 42.6818C299.44 43.2652 299.533 43.8068 299.719 44.3068C299.904 44.8068 300.19 45.2102 300.577 45.517C300.963 45.8239 301.455 45.9773 302.054 45.9773ZM306.915 39.5227V38.2727H314.006V39.5227H311.142V47H309.801V39.5227H306.915Z" fill="white"/>
<rect x="20.5" y="20.5" width="310" height="42" rx="6.5" stroke="url(#paint0_linear_19_11)"/>
<rect x="20" y="96" width="311" height="43" rx="7" fill="url(#paint1_linear_19_11)"/>
<path d="M45.6328 111.364V123H43.8828V112.864H38.4055V123H36.6555V111.364H45.6328ZM51.8572 123.176C51.0391 123.176 50.325 122.989 49.7152 122.614C49.1054 122.239 48.6319 121.714 48.2947 121.04C47.9576 120.366 47.7891 119.578 47.7891 118.676C47.7891 117.771 47.9576 116.979 48.2947 116.301C48.6319 115.623 49.1054 115.097 49.7152 114.722C50.325 114.347 51.0391 114.159 51.8572 114.159C52.6754 114.159 53.3894 114.347 53.9993 114.722C54.6091 115.097 55.0826 115.623 55.4197 116.301C55.7569 116.979 55.9254 117.771 55.9254 118.676C55.9254 119.578 55.7569 120.366 55.4197 121.04C55.0826 121.714 54.6091 122.239 53.9993 122.614C53.3894 122.989 52.6754 123.176 51.8572 123.176ZM51.8629 121.75C52.3932 121.75 52.8326 121.61 53.1811 121.33C53.5296 121.049 53.7872 120.676 53.9538 120.21C54.1243 119.744 54.2095 119.231 54.2095 118.67C54.2095 118.114 54.1243 117.602 53.9538 117.136C53.7872 116.667 53.5296 116.29 53.1811 116.006C52.8326 115.722 52.3932 115.58 51.8629 115.58C51.3288 115.58 50.8857 115.722 50.5334 116.006C50.1849 116.29 49.9254 116.667 49.755 117.136C49.5883 117.602 49.505 118.114 49.505 118.67C49.505 119.231 49.5883 119.744 49.755 120.21C49.9254 120.676 50.1849 121.049 50.5334 121.33C50.8857 121.61 51.3288 121.75 51.8629 121.75ZM56.9695 125.517V121.528H57.6797C57.8615 121.362 58.0149 121.163 58.1399 120.932C58.2687 120.701 58.3767 120.426 58.4638 120.108C58.5547 119.79 58.6304 119.419 58.6911 118.994C58.7517 118.566 58.8047 118.078 58.8501 117.528L59.1229 114.273H65.0547V121.528H66.3956V125.517H64.7365V123H58.6513V125.517H56.9695ZM59.4979 121.528H63.3956V115.727H60.6456L60.4638 117.528C60.3767 118.445 60.2668 119.241 60.1342 119.915C60.0017 120.585 59.7895 121.123 59.4979 121.528ZM68.0561 123V114.273H69.755V117.932H70.5732L73.4538 114.273H75.5561L72.1754 118.517L75.5959 123H73.4879L70.8572 119.511H69.755V123H68.0561ZM76.228 123L76.2223 121.528H76.5348C76.7772 121.528 76.9799 121.477 77.1428 121.375C77.3094 121.269 77.4458 121.091 77.5518 120.841C77.6579 120.591 77.7393 120.246 77.7962 119.807C77.853 119.364 77.8946 118.807 77.9212 118.136L78.0746 114.273H84.1655V123H82.5007V115.739H79.6484L79.5121 118.705C79.478 119.424 79.4041 120.053 79.2905 120.591C79.1806 121.129 79.0196 121.578 78.8075 121.938C78.5954 122.294 78.3227 122.561 77.9893 122.739C77.656 122.913 77.2507 123 76.7734 123H76.228ZM90.8232 117.966V119.443H86.1697V117.966H90.8232ZM87.5504 114.273V123H85.8516V114.273H87.5504ZM93.4822 123.176C92.6716 123.176 91.9633 122.987 91.3572 122.608C90.7512 122.229 90.2815 121.703 89.9482 121.028C89.6148 120.35 89.4482 119.564 89.4482 118.67C89.4482 117.769 89.6148 116.981 89.9482 116.307C90.2815 115.629 90.7512 115.102 91.3572 114.727C91.9633 114.348 92.6716 114.159 93.4822 114.159C94.2966 114.159 95.005 114.348 95.6072 114.727C96.2133 115.102 96.683 115.629 97.0163 116.307C97.3535 116.981 97.522 117.769 97.522 118.67C97.522 119.564 97.3535 120.35 97.0163 121.028C96.683 121.703 96.2133 122.229 95.6072 122.608C95.005 122.987 94.2966 123.176 93.4822 123.176ZM93.4822 121.722C94.0315 121.722 94.4804 121.583 94.8288 121.307C95.1811 121.027 95.4406 120.655 95.6072 120.193C95.7739 119.731 95.8572 119.223 95.8572 118.67C95.8572 118.114 95.7739 117.604 95.6072 117.142C95.4406 116.676 95.1811 116.303 94.8288 116.023C94.4804 115.742 94.0315 115.602 93.4822 115.602C92.9368 115.602 92.4879 115.742 92.1357 116.023C91.7834 116.303 91.5239 116.676 91.3572 117.142C91.1906 117.604 91.1072 118.114 91.1072 118.67C91.1072 119.223 91.1906 119.731 91.3572 120.193C91.5239 120.655 91.7834 121.027 92.1357 121.307C92.4879 121.583 92.9368 121.722 93.4822 121.722ZM106.531 114.273V123H104.871V114.273H106.531ZM105.809 118.324V119.79C105.548 119.896 105.271 119.991 104.979 120.074C104.688 120.153 104.381 120.216 104.059 120.261C103.737 120.307 103.402 120.33 103.053 120.33C101.974 120.33 101.116 120.066 100.479 119.54C99.843 119.009 99.5249 118.199 99.5249 117.108V114.256H101.178V117.108C101.178 117.521 101.254 117.856 101.406 118.114C101.557 118.371 101.773 118.561 102.053 118.682C102.334 118.803 102.667 118.864 103.053 118.864C103.565 118.864 104.036 118.816 104.468 118.722C104.904 118.623 105.351 118.491 105.809 118.324ZM110.455 120.619L114.302 114.273H116.131V123H114.467V116.648L110.637 123H108.79V114.273H110.455V120.619ZM117.333 115.739V114.273H124.697V115.739H121.85V123H120.191V115.739H117.333ZM127.772 117.273H130.306C131.374 117.273 132.196 117.538 132.772 118.068C133.348 118.598 133.636 119.282 133.636 120.119C133.636 120.665 133.507 121.155 133.249 121.591C132.992 122.027 132.615 122.371 132.119 122.625C131.622 122.875 131.018 123 130.306 123H126.494V114.273H128.158V121.534H130.306C130.795 121.534 131.196 121.407 131.511 121.153C131.825 120.896 131.982 120.568 131.982 120.17C131.982 119.75 131.825 119.407 131.511 119.142C131.196 118.873 130.795 118.739 130.306 118.739H127.772V117.273ZM139.217 123.176C138.372 123.176 137.645 122.985 137.035 122.602C136.429 122.216 135.963 121.684 135.637 121.006C135.311 120.328 135.148 119.551 135.148 118.676C135.148 117.79 135.315 117.008 135.648 116.33C135.982 115.648 136.451 115.116 137.058 114.733C137.664 114.35 138.378 114.159 139.2 114.159C139.862 114.159 140.453 114.282 140.972 114.528C141.491 114.771 141.91 115.112 142.228 115.551C142.55 115.991 142.741 116.504 142.802 117.091H141.148C141.058 116.682 140.849 116.33 140.523 116.034C140.201 115.739 139.77 115.591 139.228 115.591C138.754 115.591 138.34 115.716 137.984 115.966C137.631 116.212 137.357 116.564 137.16 117.023C136.963 117.477 136.864 118.015 136.864 118.636C136.864 119.273 136.961 119.822 137.154 120.284C137.347 120.746 137.62 121.104 137.972 121.358C138.328 121.612 138.747 121.739 139.228 121.739C139.55 121.739 139.842 121.68 140.103 121.562C140.368 121.441 140.59 121.269 140.768 121.045C140.95 120.822 141.076 120.553 141.148 120.239H142.802C142.741 120.803 142.558 121.307 142.251 121.75C141.944 122.193 141.533 122.542 141.018 122.795C140.506 123.049 139.906 123.176 139.217 123.176ZM149.823 123V115.722H147.732C147.236 115.722 146.85 115.837 146.573 116.068C146.297 116.299 146.158 116.602 146.158 116.977C146.158 117.348 146.285 117.648 146.539 117.875C146.797 118.098 147.156 118.21 147.619 118.21H150.317V119.585H147.619C146.975 119.585 146.418 119.479 145.948 119.267C145.482 119.051 145.122 118.746 144.869 118.352C144.619 117.958 144.494 117.492 144.494 116.955C144.494 116.405 144.622 115.932 144.88 115.534C145.141 115.133 145.514 114.822 145.999 114.602C146.488 114.383 147.066 114.273 147.732 114.273H151.42V123H149.823ZM144.096 123L146.556 118.591H148.295L145.835 123H144.096ZM164.921 114.273V123H163.262V114.273H164.921ZM164.2 118.324V119.79C163.938 119.896 163.662 119.991 163.37 120.074C163.078 120.153 162.772 120.216 162.45 120.261C162.128 120.307 161.792 120.33 161.444 120.33C160.364 120.33 159.506 120.066 158.87 119.54C158.234 119.009 157.915 118.199 157.915 117.108V114.256H159.569V117.108C159.569 117.521 159.645 117.856 159.796 118.114C159.948 118.371 160.164 118.561 160.444 118.682C160.724 118.803 161.058 118.864 161.444 118.864C161.955 118.864 162.427 118.816 162.859 118.722C163.294 118.623 163.741 118.491 164.2 118.324ZM170.942 123.176C170.083 123.176 169.342 122.992 168.721 122.625C168.103 122.254 167.626 121.733 167.289 121.062C166.956 120.388 166.789 119.598 166.789 118.693C166.789 117.799 166.956 117.011 167.289 116.33C167.626 115.648 168.096 115.116 168.698 114.733C169.304 114.35 170.013 114.159 170.823 114.159C171.316 114.159 171.793 114.241 172.255 114.403C172.717 114.566 173.132 114.822 173.499 115.17C173.867 115.519 174.156 115.972 174.369 116.528C174.581 117.081 174.687 117.754 174.687 118.545V119.148H167.749V117.875H173.022C173.022 117.428 172.931 117.032 172.749 116.688C172.567 116.339 172.312 116.064 171.982 115.864C171.656 115.663 171.274 115.562 170.835 115.562C170.357 115.562 169.941 115.68 169.585 115.915C169.232 116.146 168.96 116.449 168.766 116.824C168.577 117.195 168.482 117.598 168.482 118.034V119.028C168.482 119.612 168.585 120.108 168.789 120.517C168.997 120.926 169.287 121.239 169.658 121.455C170.03 121.667 170.463 121.773 170.96 121.773C171.281 121.773 171.575 121.727 171.84 121.636C172.105 121.542 172.335 121.402 172.528 121.216C172.721 121.03 172.869 120.801 172.971 120.528L174.579 120.818C174.45 121.292 174.219 121.706 173.886 122.062C173.556 122.415 173.141 122.689 172.641 122.886C172.145 123.08 171.579 123.176 170.942 123.176ZM176.572 126.273V114.273H178.231V115.688H178.373C178.471 115.506 178.613 115.295 178.799 115.057C178.985 114.818 179.242 114.61 179.572 114.432C179.901 114.25 180.337 114.159 180.879 114.159C181.583 114.159 182.212 114.337 182.765 114.693C183.318 115.049 183.752 115.562 184.066 116.233C184.384 116.903 184.543 117.71 184.543 118.653C184.543 119.597 184.386 120.405 184.072 121.08C183.757 121.75 183.326 122.267 182.776 122.631C182.227 122.991 181.6 123.17 180.896 123.17C180.365 123.17 179.932 123.081 179.594 122.903C179.261 122.725 179 122.517 178.81 122.278C178.621 122.04 178.475 121.828 178.373 121.642H178.271V126.273H176.572ZM178.237 118.636C178.237 119.25 178.326 119.788 178.504 120.25C178.682 120.712 178.939 121.074 179.276 121.335C179.613 121.593 180.026 121.722 180.515 121.722C181.022 121.722 181.447 121.587 181.788 121.318C182.129 121.045 182.386 120.676 182.56 120.21C182.738 119.744 182.827 119.22 182.827 118.636C182.827 118.061 182.74 117.544 182.566 117.085C182.396 116.627 182.138 116.265 181.793 116C181.452 115.735 181.026 115.602 180.515 115.602C180.022 115.602 179.606 115.729 179.265 115.983C178.928 116.237 178.672 116.591 178.498 117.045C178.324 117.5 178.237 118.03 178.237 118.636ZM190.208 123.176C189.348 123.176 188.608 122.992 187.987 122.625C187.369 122.254 186.892 121.733 186.555 121.062C186.221 120.388 186.055 119.598 186.055 118.693C186.055 117.799 186.221 117.011 186.555 116.33C186.892 115.648 187.362 115.116 187.964 114.733C188.57 114.35 189.278 114.159 190.089 114.159C190.581 114.159 191.058 114.241 191.521 114.403C191.983 114.566 192.397 114.822 192.765 115.17C193.132 115.519 193.422 115.972 193.634 116.528C193.846 117.081 193.952 117.754 193.952 118.545V119.148H187.015V117.875H192.288C192.288 117.428 192.197 117.032 192.015 116.688C191.833 116.339 191.577 116.064 191.248 115.864C190.922 115.663 190.54 115.562 190.1 115.562C189.623 115.562 189.206 115.68 188.85 115.915C188.498 116.146 188.225 116.449 188.032 116.824C187.843 117.195 187.748 117.598 187.748 118.034V119.028C187.748 119.612 187.85 120.108 188.055 120.517C188.263 120.926 188.553 121.239 188.924 121.455C189.295 121.667 189.729 121.773 190.225 121.773C190.547 121.773 190.841 121.727 191.106 121.636C191.371 121.542 191.6 121.402 191.793 121.216C191.987 121.03 192.134 120.801 192.237 120.528L193.844 120.818C193.716 121.292 193.485 121.706 193.151 122.062C192.822 122.415 192.407 122.689 191.907 122.886C191.411 123.08 190.844 123.176 190.208 123.176ZM195.32 120.693H197.059C197.082 121.049 197.243 121.324 197.542 121.517C197.845 121.71 198.237 121.807 198.718 121.807C199.207 121.807 199.623 121.703 199.968 121.494C200.313 121.282 200.485 120.955 200.485 120.511C200.485 120.246 200.419 120.015 200.286 119.818C200.157 119.617 199.974 119.462 199.735 119.352C199.5 119.242 199.222 119.188 198.9 119.188H197.479V117.852H198.9C199.381 117.852 199.741 117.742 199.979 117.523C200.218 117.303 200.337 117.028 200.337 116.699C200.337 116.343 200.209 116.057 199.951 115.841C199.697 115.621 199.343 115.511 198.888 115.511C198.426 115.511 198.042 115.616 197.735 115.824C197.428 116.028 197.267 116.294 197.252 116.619H195.536C195.548 116.131 195.695 115.703 195.979 115.335C196.267 114.964 196.654 114.676 197.138 114.472C197.627 114.263 198.182 114.159 198.803 114.159C199.451 114.159 200.012 114.263 200.485 114.472C200.959 114.68 201.324 114.968 201.582 115.335C201.843 115.703 201.974 116.125 201.974 116.602C201.974 117.083 201.83 117.477 201.542 117.784C201.258 118.087 200.887 118.305 200.428 118.438V118.528C200.765 118.551 201.065 118.653 201.326 118.835C201.587 119.017 201.792 119.258 201.94 119.557C202.087 119.856 202.161 120.195 202.161 120.574C202.161 121.108 202.013 121.57 201.718 121.96C201.426 122.35 201.021 122.652 200.502 122.864C199.987 123.072 199.398 123.176 198.735 123.176C198.091 123.176 197.513 123.076 197.002 122.875C196.495 122.67 196.091 122.383 195.792 122.011C195.496 121.64 195.339 121.201 195.32 120.693ZM207.661 115.739V114.273H215.025V115.739H212.178V123H210.519V115.739H207.661ZM220.177 123.176C219.317 123.176 218.576 122.992 217.955 122.625C217.338 122.254 216.861 121.733 216.523 121.062C216.19 120.388 216.023 119.598 216.023 118.693C216.023 117.799 216.19 117.011 216.523 116.33C216.861 115.648 217.33 115.116 217.933 114.733C218.539 114.35 219.247 114.159 220.058 114.159C220.55 114.159 221.027 114.241 221.489 114.403C221.951 114.566 222.366 114.822 222.734 115.17C223.101 115.519 223.391 115.972 223.603 116.528C223.815 117.081 223.921 117.754 223.921 118.545V119.148H216.984V117.875H222.256C222.256 117.428 222.165 117.032 221.984 116.688C221.802 116.339 221.546 116.064 221.217 115.864C220.891 115.663 220.508 115.562 220.069 115.562C219.592 115.562 219.175 115.68 218.819 115.915C218.467 116.146 218.194 116.449 218.001 116.824C217.811 117.195 217.717 117.598 217.717 118.034V119.028C217.717 119.612 217.819 120.108 218.023 120.517C218.232 120.926 218.522 121.239 218.893 121.455C219.264 121.667 219.698 121.773 220.194 121.773C220.516 121.773 220.809 121.727 221.075 121.636C221.34 121.542 221.569 121.402 221.762 121.216C221.955 121.03 222.103 120.801 222.205 120.528L223.813 120.818C223.684 121.292 223.453 121.706 223.12 122.062C222.79 122.415 222.376 122.689 221.876 122.886C221.379 123.08 220.813 123.176 220.177 123.176ZM225.119 123L225.113 121.528H225.425C225.668 121.528 225.871 121.477 226.033 121.375C226.2 121.269 226.336 121.091 226.442 120.841C226.549 120.591 226.63 120.246 226.687 119.807C226.744 119.364 226.785 118.807 226.812 118.136L226.965 114.273H233.056V123H231.391V115.739H228.539L228.403 118.705C228.369 119.424 228.295 120.053 228.181 120.591C228.071 121.129 227.91 121.578 227.698 121.938C227.486 122.294 227.213 122.561 226.88 122.739C226.547 122.913 226.141 123 225.664 123H225.119ZM239.083 123.176C238.223 123.176 237.483 122.992 236.862 122.625C236.244 122.254 235.767 121.733 235.43 121.062C235.096 120.388 234.93 119.598 234.93 118.693C234.93 117.799 235.096 117.011 235.43 116.33C235.767 115.648 236.237 115.116 236.839 114.733C237.445 114.35 238.153 114.159 238.964 114.159C239.456 114.159 239.933 114.241 240.396 114.403C240.858 114.566 241.272 114.822 241.64 115.17C242.007 115.519 242.297 115.972 242.509 116.528C242.721 117.081 242.827 117.754 242.827 118.545V119.148H235.89V117.875H241.163C241.163 117.428 241.072 117.032 240.89 116.688C240.708 116.339 240.452 116.064 240.123 115.864C239.797 115.663 239.415 115.562 238.975 115.562C238.498 115.562 238.081 115.68 237.725 115.915C237.373 116.146 237.1 116.449 236.907 116.824C236.718 117.195 236.623 117.598 236.623 118.034V119.028C236.623 119.612 236.725 120.108 236.93 120.517C237.138 120.926 237.428 121.239 237.799 121.455C238.17 121.667 238.604 121.773 239.1 121.773C239.422 121.773 239.716 121.727 239.981 121.636C240.246 121.542 240.475 121.402 240.668 121.216C240.862 121.03 241.009 120.801 241.112 120.528L242.719 120.818C242.591 121.292 242.36 121.706 242.026 122.062C241.697 122.415 241.282 122.689 240.782 122.886C240.286 123.08 239.719 123.176 239.083 123.176ZM250.292 114.273V115.739H246.388V123H244.712V114.273H250.292ZM252.087 126.273V114.273H253.746V115.688H253.888C253.987 115.506 254.129 115.295 254.315 115.057C254.5 114.818 254.758 114.61 255.087 114.432C255.417 114.25 255.853 114.159 256.394 114.159C257.099 114.159 257.728 114.337 258.281 114.693C258.834 115.049 259.267 115.562 259.582 116.233C259.9 116.903 260.059 117.71 260.059 118.653C260.059 119.597 259.902 120.405 259.587 121.08C259.273 121.75 258.841 122.267 258.292 122.631C257.743 122.991 257.116 123.17 256.411 123.17C255.881 123.17 255.447 123.081 255.11 122.903C254.777 122.725 254.515 122.517 254.326 122.278C254.137 122.04 253.991 121.828 253.888 121.642H253.786V126.273H252.087ZM253.752 118.636C253.752 119.25 253.841 119.788 254.019 120.25C254.197 120.712 254.455 121.074 254.792 121.335C255.129 121.593 255.542 121.722 256.031 121.722C256.538 121.722 256.962 121.587 257.303 121.318C257.644 121.045 257.902 120.676 258.076 120.21C258.254 119.744 258.343 119.22 258.343 118.636C258.343 118.061 258.256 117.544 258.082 117.085C257.911 116.627 257.654 116.265 257.309 116C256.968 115.735 256.542 115.602 256.031 115.602C255.538 115.602 255.121 115.729 254.781 115.983C254.443 116.237 254.188 116.591 254.013 117.045C253.839 117.5 253.752 118.03 253.752 118.636ZM264.502 123.193C263.949 123.193 263.449 123.091 263.002 122.886C262.555 122.678 262.201 122.377 261.94 121.983C261.682 121.589 261.553 121.106 261.553 120.534C261.553 120.042 261.648 119.636 261.837 119.318C262.027 119 262.282 118.748 262.604 118.562C262.926 118.377 263.286 118.237 263.684 118.142C264.082 118.047 264.487 117.975 264.9 117.926C265.423 117.866 265.847 117.816 266.173 117.778C266.498 117.737 266.735 117.67 266.883 117.58C267.031 117.489 267.104 117.341 267.104 117.136V117.097C267.104 116.6 266.964 116.216 266.684 115.943C266.407 115.67 265.995 115.534 265.445 115.534C264.873 115.534 264.423 115.661 264.093 115.915C263.767 116.165 263.542 116.443 263.417 116.75L261.82 116.386C262.01 115.856 262.286 115.428 262.65 115.102C263.017 114.773 263.44 114.534 263.917 114.386C264.394 114.235 264.896 114.159 265.423 114.159C265.771 114.159 266.14 114.201 266.531 114.284C266.924 114.364 267.292 114.511 267.633 114.727C267.978 114.943 268.26 115.252 268.479 115.653C268.699 116.051 268.809 116.568 268.809 117.205V123H267.15V121.807H267.082C266.972 122.027 266.807 122.242 266.587 122.455C266.368 122.667 266.085 122.843 265.741 122.983C265.396 123.123 264.983 123.193 264.502 123.193ZM264.871 121.83C265.341 121.83 265.743 121.737 266.076 121.551C266.413 121.366 266.669 121.123 266.843 120.824C267.021 120.521 267.11 120.197 267.11 119.852V118.727C267.049 118.788 266.932 118.845 266.758 118.898C266.587 118.947 266.392 118.991 266.173 119.028C265.953 119.062 265.739 119.095 265.531 119.125C265.322 119.152 265.148 119.174 265.008 119.193C264.678 119.235 264.377 119.305 264.104 119.403C263.835 119.502 263.62 119.644 263.457 119.83C263.298 120.011 263.218 120.254 263.218 120.557C263.218 120.977 263.373 121.295 263.684 121.511C263.995 121.723 264.39 121.83 264.871 121.83ZM275.969 120.898L278.788 114.273H280.254L276.6 123H275.339L271.759 114.273H273.208L275.969 120.898ZM272.737 114.273V123H271.072V114.273H272.737ZM279.248 123V114.273H280.901V123H279.248ZM288.308 117.347V118.818H283.148V117.347H288.308ZM297.305 111.023L298.009 112.097C297.748 112.335 297.451 112.506 297.117 112.608C296.788 112.706 296.407 112.769 295.975 112.795C295.543 112.818 295.049 112.839 294.492 112.858C293.863 112.877 293.346 113.013 292.941 113.267C292.536 113.517 292.223 113.888 292.004 114.381C291.788 114.869 291.647 115.483 291.583 116.222H291.691C291.975 115.68 292.369 115.275 292.873 115.006C293.38 114.737 293.951 114.602 294.583 114.602C295.288 114.602 295.915 114.763 296.464 115.085C297.013 115.407 297.445 115.879 297.759 116.5C298.077 117.117 298.237 117.873 298.237 118.767C298.237 119.672 298.07 120.455 297.737 121.114C297.407 121.773 296.941 122.282 296.339 122.642C295.74 122.998 295.034 123.176 294.219 123.176C293.405 123.176 292.695 122.992 292.089 122.625C291.487 122.254 291.019 121.705 290.685 120.977C290.356 120.25 290.191 119.352 290.191 118.284V117.42C290.191 115.424 290.547 113.922 291.259 112.915C291.971 111.907 293.036 111.39 294.452 111.364C294.911 111.352 295.32 111.35 295.68 111.358C296.04 111.362 296.354 111.345 296.623 111.307C296.896 111.265 297.123 111.17 297.305 111.023ZM294.225 121.75C294.699 121.75 295.106 121.631 295.447 121.392C295.791 121.15 296.057 120.807 296.242 120.364C296.428 119.92 296.521 119.398 296.521 118.795C296.521 118.205 296.428 117.703 296.242 117.29C296.057 116.877 295.791 116.562 295.447 116.347C295.102 116.127 294.689 116.017 294.208 116.017C293.852 116.017 293.534 116.08 293.254 116.205C292.973 116.326 292.733 116.506 292.532 116.744C292.335 116.983 292.182 117.275 292.072 117.619C291.966 117.96 291.909 118.352 291.901 118.795C291.901 119.697 292.108 120.415 292.521 120.949C292.937 121.483 293.505 121.75 294.225 121.75ZM303.81 123.176C302.992 123.176 302.278 122.989 301.668 122.614C301.058 122.239 300.585 121.714 300.248 121.04C299.911 120.366 299.742 119.578 299.742 118.676C299.742 117.771 299.911 116.979 300.248 116.301C300.585 115.623 301.058 115.097 301.668 114.722C302.278 114.347 302.992 114.159 303.81 114.159C304.629 114.159 305.343 114.347 305.952 114.722C306.562 115.097 307.036 115.623 307.373 116.301C307.71 116.979 307.879 117.771 307.879 118.676C307.879 119.578 307.71 120.366 307.373 121.04C307.036 121.714 306.562 122.239 305.952 122.614C305.343 122.989 304.629 123.176 303.81 123.176ZM303.816 121.75C304.346 121.75 304.786 121.61 305.134 121.33C305.483 121.049 305.74 120.676 305.907 120.21C306.077 119.744 306.163 119.231 306.163 118.67C306.163 118.114 306.077 117.602 305.907 117.136C305.74 116.667 305.483 116.29 305.134 116.006C304.786 115.722 304.346 115.58 303.816 115.58C303.282 115.58 302.839 115.722 302.487 116.006C302.138 116.29 301.879 116.667 301.708 117.136C301.541 117.602 301.458 118.114 301.458 118.67C301.458 119.231 301.541 119.744 301.708 120.21C301.879 120.676 302.138 121.049 302.487 121.33C302.839 121.61 303.282 121.75 303.816 121.75ZM308.724 115.739V114.273H316.087V115.739H313.241V123H311.582V115.739H308.724Z" fill="white"/>
<rect x="0.5" y="0.5" width="443" height="171" rx="4.5" stroke="#9747FF" stroke-dasharray="10 5"/>
<defs>
<linearGradient id="paint0_linear_19_11" x1="20" y1="32" x2="340.5" y2="38" gradientUnits="userSpaceOnUse">
<stop stop-color="#1979ED"/>
<stop offset="1" stop-color="#1CCDD9"/>
</linearGradient>
<linearGradient id="paint1_linear_19_11" x1="-36" y1="126" x2="345" y2="126" gradientUnits="userSpaceOnUse">
<stop stop-color="#1863F2"/>
<stop offset="1" stop-color="#18F1F3" stop-opacity="0.85"/>
</linearGradient>
</defs>
</svg>
