<svg width="278" height="191" viewBox="0 0 278 191" fill="none" xmlns="http://www.w3.org/2000/svg">
<path d="M269.241 0.127276C275.703 17.8976 278.557 36.7781 277.635 55.6643C276.713 74.5505 272.034 93.0633 263.873 110.12C255.711 127.176 244.23 142.434 230.102 155.001C215.973 167.568 199.48 177.191 181.588 183.308C163.696 189.425 144.764 191.912 125.899 190.626C107.034 189.339 88.6156 184.303 71.7201 175.813C54.8246 167.323 39.7916 155.549 27.5006 141.18C15.6418 127.316 6.38182 110.792 0.576006 93.5101C0.364372 92.8801 1.12184 91.104 0.918922 90.4707L1.49195 91.6939C7.20388 109.521 16.4133 126.03 28.5814 140.255C40.7495 154.48 55.6321 166.137 72.3587 174.542C89.0852 182.947 107.32 187.932 125.996 189.207C144.672 190.481 163.415 188.018 181.128 181.962C198.841 175.906 215.169 166.379 229.156 153.938C243.144 141.497 254.51 126.392 262.59 109.506C270.67 92.62 275.302 74.2923 276.214 55.595C277.127 36.8976 274.302 18.2059 267.905 0.613311L269.241 0.127276Z" fill="white"/>
</svg>
