<svg width="364" height="277" viewBox="0 0 364 277" fill="none" xmlns="http://www.w3.org/2000/svg">
<g filter="url(#filter0_d_11_5)">
<path d="M340.202 3.21583e-07C351.205 22.1457 357.682 46.2632 359.254 70.9419C360.826 95.6206 357.46 120.365 349.355 143.728C341.25 167.09 328.568 188.602 312.05 207.005C295.532 225.408 275.51 240.332 253.156 250.905C230.801 261.478 206.563 267.487 181.859 268.581C157.154 269.675 132.48 265.832 109.278 257.277C86.0766 248.721 64.814 235.625 46.7341 218.754C29.29 202.477 14.8331 182.361 4.75382 160.754C4.38641 159.966 5.11032 157.547 4.75374 156.754L5.6778 158.259C15.715 180.589 30.1039 200.692 48.003 217.394C65.9022 234.096 86.9521 247.062 109.922 255.532C132.891 264.002 157.319 267.806 181.776 266.723C206.234 265.64 230.23 259.691 252.361 249.224C274.491 238.757 294.313 223.981 310.666 205.763C327.018 187.544 339.574 166.247 347.598 143.118C355.622 119.989 358.954 95.492 357.398 71.0601C355.842 46.6282 349.43 22.7519 338.536 0.827636L340.202 3.21583e-07Z" fill="white"/>
</g>
<defs>
<filter id="filter0_d_11_5" x="0.646484" y="0" width="362.983" height="276.764" filterUnits="userSpaceOnUse" color-interpolation-filters="sRGB">
<feFlood flood-opacity="0" result="BackgroundImageFix"/>
<feColorMatrix in="SourceAlpha" type="matrix" values="0 0 0 0 0 0 0 0 0 0 0 0 0 0 0 0 0 0 127 0" result="hardAlpha"/>
<feOffset dy="4"/>
<feGaussianBlur stdDeviation="2"/>
<feComposite in2="hardAlpha" operator="out"/>
<feColorMatrix type="matrix" values="0 0 0 0 0 0 0 0 0 0 0 0 0 0 0 0 0 0 0.25 0"/>
<feBlend mode="normal" in2="BackgroundImageFix" result="effect1_dropShadow_11_5"/>
<feBlend mode="normal" in="SourceGraphic" in2="effect1_dropShadow_11_5" result="shape"/>
</filter>
</defs>
</svg>
